<?xml version="1.0" standalone="no"?>
<!DOCTYPE svg PUBLIC "-//W3C//DTD SVG 20010904//EN"
 "http://www.w3.org/TR/2001/REC-SVG-20010904/DTD/svg10.dtd">
<svg version="1.0" xmlns="http://www.w3.org/2000/svg"
 width="348.000000pt" height="348.000000pt" viewBox="0 0 348.000000 348.000000"
 preserveAspectRatio="xMidYMid meet">
<metadata>
Created by potrace 1.14, written by Peter Selinger 2001-2017
</metadata>
<g transform="translate(0.000000,348.000000) scale(0.100000,-0.100000)"
fill="#000000" stroke="none">
<path d="M1596 3330 c-148 -24 -311 -86 -433 -166 -89 -59 -229 -199 -290
-291 -62 -93 -113 -208 -144 -322 -27 -98 -37 -310 -19 -419 69 -434 395 -774
830 -864 125 -26 346 -21 460 10 183 51 322 129 455 254 151 143 249 307 302
506 23 84 26 118 26 252 1 131 -3 169 -22 245 -102 394 -388 679 -777 775
-101 25 -294 34 -388 20z m396 -38 c305 -82 556 -290 683 -566 19 -40 46 -113
61 -162 25 -82 28 -103 28 -264 1 -204 -15 -281 -88 -436 -145 -307 -393 -504
-731 -581 -114 -26 -326 -21 -447 11 -177 45 -327 128 -457 251 -100 94 -163
180 -222 300 -73 149 -101 268 -102 435 0 74 5 162 12 195 90 439 412 756 850
835 83 16 328 5 413 -18z"/>
<path d="M1565 3126 c-288 -67 -523 -272 -622 -542 -172 -475 104 -989 602
-1120 52 -13 104 -18 205 -17 117 0 147 4 225 27 277 83 482 281 577 556 32
92 33 100 33 260 0 146 -3 174 -23 240 -45 141 -108 247 -211 353 -106 110
-245 194 -386 233 -82 23 -319 28 -400 10z m295 -16 c276 -44 505 -214 624
-463 64 -134 80 -207 79 -357 -1 -148 -22 -243 -83 -365 -102 -205 -305 -370
-530 -432 -101 -27 -320 -25 -423 5 -273 78 -476 272 -569 542 -31 91 -32 102
-33 245 0 127 4 162 23 228 116 401 512 660 912 597z"/>
<path d="M2031 2675 l-131 -116 0 -47 c0 -50 -12 -74 -64 -130 -60 -65 -44
-75 -288 173 -167 170 -227 225 -242 223 -31 -4 -31 -40 -2 -103 61 -134 257
-329 384 -382 l37 -15 -50 -45 c-27 -25 -113 -100 -190 -166 -224 -196 -216
-187 -222 -235 -6 -42 -5 -42 26 -42 18 0 41 5 51 10 16 8 155 163 388 429
l22 26 91 -95 c50 -52 140 -150 201 -217 87 -97 119 -125 150 -135 49 -15 63
-3 54 46 -6 30 -30 57 -149 165 -79 71 -179 163 -222 204 l-80 76 67 67 c67
65 68 66 117 62 l50 -3 121 138 c66 75 118 137 114 137 -3 0 -51 -42 -105 -92
-55 -51 -106 -95 -112 -97 -6 -2 32 44 86 102 53 59 97 110 97 113 0 3 -36
-27 -80 -67 -126 -116 -152 -131 -80 -51 36 41 81 92 100 115 l35 42 -52 -45
c-29 -25 -80 -70 -114 -100 -59 -52 -71 -43 -14 10 35 33 148 160 142 160 -2
0 -64 -52 -136 -115z m-281 -359 c0 -2 -8 -10 -17 -17 -16 -13 -17 -12 -4 4
13 16 21 21 21 13z"/>
<path d="M373 1315 c-226 -63 -360 -266 -324 -488 14 -84 67 -201 109 -241 44
-41 108 -47 147 -14 23 20 29 35 32 79 3 30 -2 84 -9 122 -8 37 -12 69 -10 72
24 23 67 -15 140 -122 100 -146 195 -196 331 -172 75 14 79 29 9 29 -94 0
-151 37 -286 182 -29 32 -69 70 -88 86 l-35 29 67 49 c76 56 148 146 165 207
19 71 -2 138 -56 173 -34 22 -129 27 -192 9z m133 -56 c72 -67 53 -199 -42
-293 -62 -60 -106 -83 -140 -71 -24 9 -29 20 -46 90 -22 92 -34 109 -71 99
-33 -8 -33 -10 -2 -114 22 -73 23 -85 10 -93 -23 -12 -18 -36 10 -47 15 -6 27
-20 31 -37 4 -15 13 -53 20 -83 18 -71 18 -105 -2 -124 -44 -44 -101 8 -141
127 -23 70 -27 99 -27 202 -1 109 1 125 25 175 49 104 122 166 229 193 63 16
111 9 146 -24z"/>
<path d="M1196 1160 c-7 -80 -10 -90 -27 -90 -10 0 -19 -7 -19 -15 0 -8 8 -15
19 -15 17 0 19 -11 23 -118 3 -95 8 -125 24 -153 37 -63 100 -48 153 38 l29
47 15 -35 c19 -46 47 -69 91 -76 34 -5 40 -2 81 40 l43 45 7 -26 c20 -82 88
-64 141 38 l18 35 8 -44 c10 -59 32 -81 79 -81 30 0 43 7 68 35 36 42 41 43
41 11 0 -59 65 -75 108 -26 32 36 132 209 132 227 0 7 8 13 18 13 9 0 36 9 60
20 49 22 52 14 13 -43 -78 -115 -103 -214 -63 -250 33 -30 62 -21 118 37 l52
53 6 -36 c7 -47 53 -92 94 -93 33 -1 75 22 104 56 17 21 17 20 18 -16 0 -41
21 -68 51 -68 12 0 44 25 75 57 30 31 54 55 54 53 0 -3 -9 -29 -20 -58 -23
-59 -20 -72 14 -72 33 0 41 14 59 109 19 93 34 116 101 152 46 24 76 21 76 -8
0 -10 -16 -62 -35 -116 -43 -120 -45 -164 -10 -177 34 -13 65 0 120 51 l45 42
0 -56 c0 -65 16 -87 63 -87 36 0 56 12 135 78 35 30 49 49 43 55 -6 6 -28 -6
-62 -37 -52 -47 -88 -64 -110 -51 -15 10 -7 65 27 176 l27 90 31 -7 c47 -10
58 -10 63 3 2 6 -12 14 -36 18 -23 4 -41 12 -41 19 0 7 11 45 25 85 20 60 22
73 10 77 -26 10 -36 -1 -69 -76 -27 -64 -36 -75 -54 -72 -15 2 -22 -2 -22 -12
0 -9 7 -16 15 -16 19 0 19 -2 -6 -71 -22 -61 -69 -124 -120 -160 -54 -38 -57
-13 -14 114 43 128 42 157 -4 177 -39 16 -80 6 -132 -32 -33 -24 -40 -26 -35
-12 4 11 10 34 13 52 6 33 5 33 -28 30 -34 -3 -34 -3 -50 -80 -13 -66 -22 -84
-63 -132 -47 -55 -72 -68 -82 -43 -6 17 19 136 46 211 11 33 16 64 12 68 -12
12 -58 -7 -65 -26 -5 -12 -13 -8 -40 19 -39 39 -78 45 -127 20 -37 -19 -78
-73 -91 -119 -14 -50 -100 -142 -124 -133 -25 10 -17 61 30 176 20 51 34 99
31 107 -4 12 -18 13 -68 8 -59 -6 -64 -5 -73 17 -14 33 -60 38 -75 9 -15 -28
-5 -54 25 -68 14 -6 25 -15 25 -20 0 -14 -98 -174 -122 -199 -11 -12 -25 -20
-31 -16 -9 6 -6 90 9 241 6 56 5 62 -12 62 -35 0 -43 -15 -54 -104 -15 -121
-62 -206 -104 -190 -24 9 -30 46 -22 148 12 151 12 150 -4 154 -32 6 -49 -22
-61 -99 -9 -60 -20 -90 -50 -138 -43 -69 -65 -77 -74 -28 -6 31 11 233 21 248
8 14 -14 19 -40 9 -16 -6 -26 -17 -26 -30 0 -26 -4 -25 -34 5 -31 31 -87 33
-132 6 -35 -22 -74 -93 -74 -137 0 -17 -17 -56 -40 -91 -68 -108 -95 -81 -107
103 l-6 103 43 3 c61 4 66 28 6 28 l-46 0 0 85 c0 83 -1 85 -24 85 -22 0 -24
-4 -30 -90z m1019 -90 c3 -5 2 -10 -4 -10 -5 0 -13 5 -16 10 -3 6 -2 10 4 10
5 0 13 -4 16 -10z m-641 -10 c71 -27 74 -179 5 -246 -39 -37 -74 -27 -99 29
-33 72 -21 169 27 207 29 23 33 23 67 10z m1075 -76 c41 -53 17 -174 -45 -223
-34 -27 -61 -24 -87 10 -38 53 -13 197 40 228 33 19 70 13 92 -15z"/>
<path d="M892 1068 c-18 -18 -15 -63 7 -82 19 -17 19 -19 -3 -84 -45 -132 -90
-192 -143 -192 -27 0 -83 50 -83 74 0 8 20 31 45 51 73 61 105 131 73 163 -24
24 -85 14 -124 -20 -46 -41 -64 -83 -64 -150 0 -166 154 -229 244 -100 29 43
85 176 86 205 0 25 17 21 91 -23 72 -42 95 -77 83 -124 -8 -33 -49 -66 -81
-66 -35 0 -76 44 -67 73 8 29 34 57 51 57 7 0 13 5 13 10 0 21 -43 9 -71 -19
-55 -56 -23 -129 61 -138 98 -9 177 97 140 186 -15 37 -45 57 -128 85 l-66 22
0 40 c-1 34 -4 39 -26 42 -14 2 -31 -3 -38 -10z m46 -32 c3 -12 -1 -17 -10
-14 -7 3 -15 13 -16 22 -3 12 1 17 10 14 7 -3 15 -13 16 -22z m-203 -72 c9 -9
14 -23 11 -31 -3 -8 -6 -19 -6 -24 0 -15 -72 -89 -81 -83 -24 14 -3 118 28
142 22 16 28 15 48 -4z"/>
<path d="M1370 599 c-107 -8 -403 -39 -407 -43 -3 -3 55 -227 60 -232 3 -3 69
2 148 10 230 24 244 25 449 32 208 7 478 -5 718 -32 79 -9 144 -15 146 -13 5
8 57 231 54 234 -6 5 -291 35 -433 45 -163 11 -569 11 -735 -1z m398 -54 c8
-18 19 -25 39 -25 l26 0 -21 -23 c-15 -16 -19 -30 -15 -46 5 -21 4 -23 -13
-16 -24 10 -44 10 -67 0 -15 -6 -17 -4 -12 17 4 16 1 29 -9 37 -22 18 -20 31
4 31 12 0 25 10 32 25 6 14 14 25 18 25 4 0 12 -11 18 -25z m-320 -15 c7 -11
23 -20 37 -20 28 0 32 -12 10 -30 -11 -9 -14 -22 -10 -42 6 -27 6 -28 -19 -16
-20 9 -29 9 -38 0 -20 -20 -36 -14 -31 12 4 17 -1 28 -16 38 -27 17 -27 26 2
30 12 2 26 13 32 26 12 27 17 27 33 2z m610 -5 c7 -15 20 -25 32 -25 23 0 27
-18 5 -26 -9 -4 -15 -19 -15 -35 0 -32 -3 -34 -30 -19 -12 7 -28 7 -44 0 -24
-9 -25 -8 -19 21 4 21 0 35 -12 49 -18 20 -17 20 13 20 22 0 32 6 37 20 9 27
19 25 33 -5z m-861 -61 c8 -21 -13 -42 -28 -27 -13 13 -5 43 11 43 6 0 13 -7
17 -16z m1140 5 c14 -14 6 -39 -12 -39 -18 0 -28 17 -21 35 6 18 18 19 33 4z"/>
<path d="M788 437 c-65 -11 -118 -24 -118 -28 0 -4 29 -25 65 -48 36 -22 65
-45 65 -50 0 -6 -12 -35 -27 -65 -15 -31 -24 -58 -21 -61 3 -4 55 3 114 14
122 23 329 51 375 51 17 0 28 4 25 9 -3 4 -52 11 -108 15 -166 11 -164 10
-178 64 -29 121 -30 122 -53 121 -12 -1 -75 -11 -139 -22z"/>
<path d="M2535 379 c-15 -63 -23 -83 -39 -89 -12 -4 -71 -11 -132 -15 -61 -4
-116 -10 -122 -14 -6 -4 41 -12 106 -19 64 -7 180 -24 257 -37 77 -14 143 -25
147 -25 4 0 -4 26 -18 58 -14 31 -28 62 -30 68 -3 6 27 32 67 57 43 28 66 49
58 51 -17 6 -246 46 -264 46 -7 0 -20 -35 -30 -81z"/>
<path d="M410 340 c-20 -12 -4 -53 29 -73 16 -9 33 -17 38 -17 4 1 -4 8 -19
16 -27 14 -40 54 -18 54 6 0 10 4 10 9 0 13 -25 20 -40 11z"/>
<path d="M3059 338 c-11 -7 -11 -11 -1 -15 19 -8 14 -39 -10 -57 -18 -13 -15
-13 12 1 24 13 36 27 38 45 3 28 -17 42 -39 26z"/>
<path d="M157 286 c-74 -27 -110 -80 -82 -122 17 -26 44 -31 63 -12 16 16 15
45 -2 51 -17 7 -40 -18 -31 -33 3 -5 2 -10 -3 -10 -19 0 -22 33 -6 57 18 28
59 48 121 58 52 8 141 -13 222 -55 81 -41 138 -41 183 -1 18 16 30 32 27 36
-4 3 -18 -5 -32 -19 -39 -39 -85 -35 -182 16 -71 36 -89 42 -160 45 -53 2 -93
-2 -118 -11z"/>
<path d="M3140 285 c-19 -7 -61 -27 -94 -44 -75 -40 -127 -42 -162 -4 -13 14
-27 23 -30 20 -4 -4 8 -20 26 -37 45 -42 96 -41 190 5 137 65 249 68 321 8 30
-26 37 -62 11 -71 -8 -2 -10 2 -6 13 8 19 -12 36 -33 28 -17 -7 -17 -37 2 -53
21 -17 47 -9 64 22 14 25 14 29 -5 55 -34 47 -98 73 -179 72 -38 0 -86 -6
-105 -14z"/>
<path d="M360 195 c-7 -8 -10 -22 -6 -30 7 -19 38 -20 34 -1 -2 8 6 22 17 30
20 15 19 15 -6 16 -15 0 -32 -7 -39 -15z"/>
<path d="M3099 191 c13 -10 21 -23 17 -30 -4 -6 -1 -11 9 -11 21 0 30 27 15
45 -7 8 -24 15 -39 15 l-26 0 24 -19z"/>
<path d="M438 193 c7 -3 16 -2 19 1 4 3 -2 6 -13 5 -11 0 -14 -3 -6 -6z"/>
<path d="M3048 193 c7 -3 16 -2 19 1 4 3 -2 6 -13 5 -11 0 -14 -3 -6 -6z"/>
</g>
</svg>
